<svg width="295" height="295" viewBox="0 0 295 295" fill="none" xmlns="http://www.w3.org/2000/svg">
<rect width="295" height="295" rx="50" fill="#006177"/>
<path d="M149.558 50.3658C96.9057 50.3661 54.2222 93.0494 54.2222 145.702C54.2222 198.354 96.9058 241.038 149.558 241.038C202.211 241.038 244.894 198.354 244.894 145.702C244.894 93.0492 202.211 50.3658 149.558 50.3658Z" fill="white"/>
<path d="M75 123C89.8 126.6 100.5 118 102.5 115C95.8333 134.833 93.1554 167.729 92.5 152C92 140 79 138.167 68.5 137.5C58 134.5 60.2 119.4 75 123Z" fill="#01BFEA"/>
<rect x="99.7105" y="105" width="22.5088" height="61.8259" rx="10" transform="rotate(11.8637 99.7105 105)" fill="#01BFEA"/>
<rect x="129.663" y="96.3284" width="22.5088" height="84.3334" rx="10" transform="rotate(11.8637 129.663 96.3284)" fill="#006177"/>
<rect x="160.348" y="91.9472" width="22.5088" height="106.03" rx="10" transform="rotate(11.8637 160.348 91.9472)" fill="#006177"/>
<rect x="182.913" y="128.501" width="22.5088" height="43.7857" rx="10" transform="rotate(11.8637 182.913 128.501)" fill="#006177"/>
<rect x="212.542" y="126.866" width="22.5088" height="61.8259" rx="10" transform="rotate(11.8637 212.542 126.866)" fill="#006177"/>
<ellipse cx="26" cy="26.5" rx="26" ry="26.5" transform="matrix(-1 0 0 1 88 100)" fill="#01BFEA"/>
</svg>
