<svg width="259" height="65" viewBox="0 0 259 65" fill="none" xmlns="http://www.w3.org/2000/svg">
<path d="M239.7 5.98V6.36H237.7V13H237.25V6.36H235.25V5.98H239.7ZM246.721 6.13V13H246.271V7.07L243.631 13H243.271L240.621 7.07V13H240.171V6.13H240.651L243.451 12.41L246.251 6.13H246.721Z" fill="#1E1E1E"/>
<path d="M80.448 47.576C78.144 47.576 76.048 47.176 74.16 46.376C72.272 45.544 70.768 44.344 69.648 42.776C68.56 41.176 68 39.208 67.968 36.872H73.68C73.712 38.664 74.336 40.136 75.552 41.288C76.768 42.408 78.384 42.968 80.4 42.968C82.192 42.968 83.632 42.552 84.72 41.72C85.808 40.888 86.352 39.72 86.352 38.216C86.352 37.352 86.208 36.632 85.92 36.056C85.632 35.448 85.152 34.92 84.48 34.472C83.808 33.992 82.912 33.544 81.792 33.128C80.672 32.68 79.248 32.168 77.52 31.592C75.504 30.92 73.856 30.152 72.576 29.288C71.296 28.392 70.352 27.368 69.744 26.216C69.168 25.032 68.88 23.72 68.88 22.28C68.88 20.232 69.36 18.504 70.32 17.096C71.312 15.688 72.64 14.632 74.304 13.928C76 13.192 77.872 12.824 79.92 12.824C82 12.824 83.872 13.192 85.536 13.928C87.2 14.664 88.544 15.752 89.568 17.192C90.592 18.6 91.12 20.328 91.152 22.376H85.344C85.344 21 84.832 19.832 83.808 18.872C82.784 17.912 81.424 17.432 79.728 17.432C78.288 17.4 77.056 17.768 76.032 18.536C75.04 19.304 74.544 20.424 74.544 21.896C74.544 22.92 74.864 23.768 75.504 24.44C76.176 25.112 77.12 25.704 78.336 26.216C79.552 26.728 81.024 27.288 82.752 27.896C83.808 28.248 84.88 28.664 85.968 29.144C87.088 29.624 88.096 30.248 88.992 31.016C89.92 31.752 90.672 32.68 91.248 33.8C91.824 34.888 92.112 36.248 92.112 37.88C92.112 39.896 91.584 41.64 90.528 43.112C89.504 44.552 88.112 45.656 86.352 46.424C84.592 47.192 82.624 47.576 80.448 47.576ZM102.862 47.576C100.878 47.576 99.1661 47.16 97.7261 46.328C96.3181 45.496 95.2301 44.312 94.4621 42.776C93.6941 41.208 93.3101 39.368 93.3101 37.256V23.192H98.7341V36.488C98.7341 38.472 99.1981 40.056 100.126 41.24C101.086 42.392 102.494 42.968 104.35 42.968C106.238 42.968 107.71 42.36 108.766 41.144C109.822 39.928 110.35 38.248 110.35 36.104V23.192H115.774V47H110.494L110.398 43.736C109.598 44.952 108.526 45.896 107.182 46.568C105.838 47.24 104.398 47.576 102.862 47.576ZM118.003 47V23.192H123.283L123.379 26.168C124.179 24.984 125.203 24.104 126.451 23.528C127.699 22.92 129.059 22.616 130.531 22.616C132.355 22.616 134.003 23 135.475 23.768C136.979 24.504 138.131 25.672 138.931 27.272C139.763 25.8 140.883 24.664 142.291 23.864C143.731 23.032 145.299 22.616 146.995 22.616C148.851 22.616 150.499 23 151.939 23.768C153.411 24.504 154.563 25.64 155.395 27.176C156.227 28.712 156.643 30.648 156.643 32.984V47H151.267V33.704C151.267 31.688 150.803 30.12 149.875 29C148.979 27.88 147.635 27.32 145.843 27.32C144.019 27.32 142.595 27.928 141.571 29.144C140.547 30.328 140.035 31.976 140.035 34.088V47H134.659V33.704C134.659 31.656 134.179 30.088 133.219 29C132.291 27.88 130.947 27.32 129.187 27.32C127.619 27.32 126.259 27.88 125.107 29C123.987 30.088 123.427 31.784 123.427 34.088V47H118.003ZM161.459 19.4C160.467 19.4 159.619 19.048 158.915 18.344C158.211 17.64 157.859 16.792 157.859 15.8C157.859 14.808 158.211 13.976 158.915 13.304C159.619 12.6 160.467 12.248 161.459 12.248C162.451 12.248 163.299 12.6 164.003 13.304C164.707 13.976 165.059 14.808 165.059 15.8C165.059 16.792 164.707 17.64 164.003 18.344C163.299 19.048 162.451 19.4 161.459 19.4ZM158.723 47V23.192H164.195V47H158.723ZM176.025 47C173.593 47 171.737 46.408 170.457 45.224C169.177 44.04 168.537 42.152 168.537 39.56V27.752H165.129V23.192H168.537V17.432H174.009V23.192H179.817V27.752H174.009V39.608C174.009 40.696 174.265 41.448 174.777 41.864C175.289 42.248 176.057 42.44 177.081 42.44H179.817V47H176.025ZM187.942 47.576C185.51 47.576 183.606 46.904 182.23 45.56C180.886 44.216 180.214 42.28 180.214 39.752C180.214 38.824 180.31 37.832 180.502 36.776L182.902 23.192H188.326L186.022 36.248C185.99 36.536 185.942 36.888 185.878 37.304C185.846 37.72 185.83 38.072 185.83 38.36C185.83 41.432 187.334 42.968 190.342 42.968C192.134 42.968 193.75 42.344 195.19 41.096C196.63 39.816 197.542 38.04 197.926 35.768L200.134 23.192H205.558L201.382 47H196.582L196.822 42.92C195.83 44.36 194.566 45.496 193.03 46.328C191.494 47.16 189.798 47.576 187.942 47.576ZM201.781 57.56L207.829 23.192H212.773L212.677 26.792C213.637 25.576 214.805 24.584 216.181 23.816C217.589 23.016 219.285 22.616 221.269 22.616C222.837 22.616 224.213 22.888 225.397 23.432C226.613 23.976 227.637 24.728 228.469 25.688C229.301 26.616 229.925 27.704 230.341 28.952C230.789 30.168 231.013 31.48 231.013 32.888C231.013 34.936 230.661 36.856 229.957 38.648C229.285 40.44 228.325 42.008 227.077 43.352C225.861 44.664 224.405 45.704 222.709 46.472C221.045 47.208 219.221 47.576 217.237 47.576C215.477 47.576 213.925 47.192 212.581 46.424C211.269 45.624 210.309 44.648 209.701 43.496L207.253 57.56H201.781ZM217.093 42.824C218.757 42.824 220.197 42.424 221.413 41.624C222.661 40.824 223.637 39.736 224.341 38.36C225.045 36.984 225.397 35.448 225.397 33.752C225.397 31.928 224.853 30.408 223.765 29.192C222.677 27.976 221.205 27.368 219.349 27.368C217.589 27.368 216.085 27.816 214.837 28.712C213.589 29.576 212.629 30.712 211.957 32.12C211.317 33.528 210.997 35.032 210.997 36.632C210.997 38.456 211.557 39.944 212.677 41.096C213.797 42.248 215.269 42.824 217.093 42.824Z" fill="#1E1E1E"/>
<circle cx="161" cy="14" r="6" fill="#006177"/>
<g clip-path="url(#clip0_25_5)">
<path d="M46.5085 2H9.49153C4.2495 2 0 6.2495 0 11.4915V48.5085C0 53.7505 4.2495 58 9.49153 58H46.5085C51.7505 58 56 53.7505 56 48.5085V11.4915C56 6.2495 51.7505 2 46.5085 2Z" fill="#006177"/>
<path d="M28.3907 11.561C18.3957 11.561 10.293 19.6636 10.293 29.6587C10.293 39.6536 18.3957 47.7564 28.3907 47.7564C38.3858 47.7564 46.4884 39.6536 46.4884 29.6587C46.4884 19.6636 38.3858 11.561 28.3907 11.561Z" fill="white"/>
<path d="M14.2373 25.3491C17.0468 26.0325 19.078 24.4 19.4576 23.8305C18.1921 27.5954 17.6838 33.8401 17.5593 30.8542C17.4644 28.5763 14.9966 28.2283 13.0034 28.1017C11.0102 27.5322 11.4278 24.6658 14.2373 25.3491Z" fill="#01BFEA"/>
<path d="M21.2519 22.4204L20.7859 22.3225C19.7598 22.1069 18.7534 22.7639 18.5378 23.7899L16.9055 31.5602C16.69 32.5862 17.347 33.5927 18.373 33.8082L18.8391 33.9061C19.8651 34.1216 20.8716 33.4646 21.0871 32.4386L22.7194 24.6684C22.935 23.6424 22.2779 22.6359 21.2519 22.4204Z" fill="#01BFEA"/>
<path d="M26.9378 20.7742L26.4718 20.6763C25.4458 20.4608 24.4393 21.1178 24.2238 22.1438L21.7131 34.0954C21.4975 35.1214 22.1546 36.1279 23.1806 36.3434L23.6466 36.4413C24.6726 36.6569 25.6791 35.9998 25.8947 34.9738L28.4053 23.0223C28.6209 21.9962 27.9639 20.9898 26.9378 20.7742Z" fill="#006177"/>
<path d="M32.7628 19.9425L32.2967 19.8446C31.2707 19.6291 30.2642 20.2861 30.0487 21.3121L26.6913 37.2944C26.4757 38.3204 27.1328 39.3269 28.1588 39.5424L28.6248 39.6403C29.6509 39.8559 30.6573 39.1989 30.8729 38.1728L34.2303 22.1906C34.4458 21.1646 33.7888 20.1581 32.7628 19.9425Z" fill="#006177"/>
<path d="M37.0463 26.8816L36.5802 26.7837C35.5542 26.5681 34.5477 27.2251 34.3322 28.2512L33.4039 32.67C33.1884 33.696 33.8454 34.7024 34.8714 34.918L35.3375 35.0159C36.3635 35.2314 37.37 34.5744 37.5855 33.5484L38.5138 29.1296C38.7293 28.1036 38.0723 27.0971 37.0463 26.8816Z" fill="#006177"/>
<path d="M42.6708 26.5712L42.2047 26.4733C41.1787 26.2578 40.1723 26.9148 39.9567 27.9408L38.3244 35.711C38.1089 36.737 38.7659 37.7435 39.7919 37.959L40.258 38.057C41.284 38.2725 42.2905 37.6155 42.506 36.5895L44.1383 28.8192C44.3538 27.7932 43.6968 26.7867 42.6708 26.5712Z" fill="#006177"/>
<path d="M11.7695 31.0441C9.04363 31.0441 6.83389 28.7918 6.83389 26.0136C6.83389 23.2353 9.04363 20.9831 11.7695 20.9831C14.4953 20.9831 16.7051 23.2353 16.7051 26.0136C16.7051 28.7918 14.4953 31.0441 11.7695 31.0441Z" fill="#01BFEA"/>
</g>
<defs>
<clipPath id="clip0_25_5">
<rect width="56" height="56" fill="white" transform="translate(0 2)"/>
</clipPath>
</defs>
</svg>
